<svg xmlns="http://www.w3.org/2000/svg" width="50" height="50" viewBox="0 0 50 50"><defs><linearGradient id="ux04a" x1="51.66" x2="25" y1="-2.85" y2="50" gradientUnits="userSpaceOnUse"><stop offset="0" stop-color="#666"/><stop offset="1" stop-color="#171615"/></linearGradient></defs><g><g><g><path fill="url(#ux04a)" d="M25 50c13.807 0 25-11.193 25-25S38.807 0 25 0 0 11.193 0 25s11.193 25 25 25z"/></g><g><g><path fill="#fff" d="M27.035 25.004l6.093-6.092a1.436 1.436 0 1 0-2.03-2.031l-6.094 6.093-6.093-6.093a1.436 1.436 0 1 0-2.03 2.03l6.092 6.093-6.092 6.093a1.436 1.436 0 0 0 2.03 2.031l6.093-6.093 6.093 6.093a1.436 1.436 0 1 0 2.031-2.03z"/></g></g></g></g></svg>